<?xml version="1.0" standalone="no"?>
<!DOCTYPE svg PUBLIC "-//W3C//DTD SVG 20010904//EN"
 "http://www.w3.org/TR/2001/REC-SVG-20010904/DTD/svg10.dtd">
<svg version="1.0" xmlns="http://www.w3.org/2000/svg"
 width="700.000000pt" height="700.000000pt" viewBox="0 0 700.000000 700.000000"
 preserveAspectRatio="xMidYMid meet">
<metadata>
Created by potrace 1.14, written by Peter Selinger 2001-2017
</metadata>
<g transform="translate(0.000000,700.000000) scale(0.100000,-0.100000)"
fill="#000000" stroke="none">
<path d="M1255 6993 c-138 -12 -350 -75 -485 -143 -386 -196 -644 -533 -742
-971 l-23 -104 0 -2275 0 -2275 23 -104 c128 -568 527 -968 1095 -1093 l102
-23 2275 0 2275 0 102 23 c566 125 970 529 1095 1095 l23 102 0 2275 0 2275
-23 102 c-97 438 -360 782 -747 975 -93 47 -197 84 -325 116 l-105 27 -2250 1
c-1237 0 -2268 -1 -2290 -3z m1005 -1814 c459 -57 811 -271 1065 -650 131
-195 221 -427 271 -704 21 -118 30 -439 15 -574 -81 -747 -529 -1288 -1185
-1430 -353 -77 -736 -35 -1041 114 -393 191 -682 561 -799 1021 -49 194 -60
284 -60 519 0 181 4 242 22 345 67 392 215 692 462 941 206 207 437 333 721
394 158 34 373 44 529 24z m3316 0 c226 -22 428 -77 621 -169 l103 -49 -45
-98 c-25 -54 -60 -129 -78 -166 l-32 -68 -39 27 c-55 38 -203 96 -322 127
-148 40 -282 57 -435 57 -357 0 -600 -111 -704 -323 -63 -129 -67 -277 -10
-393 80 -164 246 -266 755 -467 306 -121 422 -173 552 -250 241 -143 373 -296
440 -507 20 -65 23 -95 23 -225 -1 -138 -3 -157 -28 -230 -40 -113 -98 -206
-189 -301 -198 -206 -478 -323 -851 -355 -239 -21 -559 15 -787 86 -154 49
-420 171 -420 193 0 4 32 77 72 163 l71 156 117 -59 c379 -189 856 -249 1170
-148 146 48 280 133 353 224 145 184 141 386 -10 547 -118 124 -248 194 -678
364 -455 180 -646 285 -800 440 -164 165 -234 351 -222 590 7 135 34 243 89
355 35 70 59 102 138 180 52 52 121 110 152 128 139 82 352 150 529 170 119
13 337 14 465 1z"/>
<path d="M1838 4824 c-490 -92 -816 -474 -904 -1059 -19 -131 -22 -419 -5
-545 84 -609 424 -997 941 -1075 247 -38 532 0 725 97 148 74 302 209 392 343
308 458 325 1244 36 1734 -148 250 -364 415 -641 488 -84 22 -122 26 -282 29
-132 2 -207 -1 -262 -12z"/>
</g>
</svg>
